<svg width="153" height="167" viewBox="0 0 153 167" fill="none" xmlns="http://www.w3.org/2000/svg">
<g opacity="0.5">
<path d="M33.9167 0C15.1751 0 0 15.1374 0 33.8324C0 52.5274 15.1751 67.6647 33.9167 67.6647C52.6583 67.6647 67.8335 52.4925 67.8335 33.8324C67.8335 15.1723 52.6234 0 33.9167 0ZM33.9167 50.7486C24.5459 50.7486 16.9584 43.1799 16.9584 33.8324C16.9584 24.4849 24.5459 16.9162 33.9167 16.9162C43.2875 16.9162 50.8751 24.4849 50.8751 33.8324C50.8751 43.1799 43.2875 50.7486 33.9167 50.7486Z" fill="#B3B3F9" fill-opacity="0.22"/>
<path d="M119.443 99.265C100.702 99.265 85.5264 114.402 85.5264 133.097C85.5264 151.792 100.702 166.93 119.443 166.93C138.185 166.93 153.36 151.757 153.36 133.097C153.36 114.437 138.15 99.265 119.443 99.265ZM119.443 150.013C110.072 150.013 102.485 142.445 102.485 133.097C102.485 123.75 110.072 116.181 119.443 116.181C128.814 116.181 136.401 123.75 136.401 133.097C136.401 142.445 128.814 150.013 119.443 150.013Z" fill="#B3B3F9" fill-opacity="0.22"/>
<path d="M46.6443 166.929H24.0913L102.45 -9.15527e-05L125.002 -9.15527e-05L46.6443 166.929Z" fill="#B3B3F9" fill-opacity="0.22"/>
</g>
</svg>
