<svg width="47" height="47" viewBox="0 0 47 47" fill="none" xmlns="http://www.w3.org/2000/svg">
<rect width="46.9024" height="46.8311" rx="6" fill="#085BFD"/>
<g clip-path="url(#clip0_5990_8515)">
<path d="M38.8398 15.6097C38.8398 18.2443 37.7727 20.6297 36.0464 22.356C34.6024 23.8001 32.6975 24.7833 30.5722 25.0655L27.3887 20.9296H29.3001C32.2368 20.9296 34.62 18.5485 34.62 15.6097C34.62 12.6708 32.2368 10.292 29.3001 10.292H13.8718L10.6221 6.07001H29.3001C34.5693 6.07001 38.8398 10.3405 38.8398 15.6097Z" fill="white"/>
<path d="M39.4923 36.6533H34.1658L30.9139 32.4313L28.5615 29.3735L25.3118 25.1515L22.0621 20.9295L17.1589 14.5624H22.4876L27.3887 20.9295L30.5722 25.0655L30.6384 25.1515L33.8881 29.3735L36.2427 32.4313L39.4923 36.6533Z" fill="white"/>
<path d="M28.7644 36.6533H23.5437L20.294 32.4313L17.9394 29.3735L14.6897 25.1515H19.9104L23.1601 29.3735L25.5147 32.4313L28.7644 36.6533Z" fill="#31F99C"/>
<path d="M18.215 36.6534H12.8885L9.63878 32.4315L7.28418 29.3736H12.6107L14.9653 32.4315L18.215 36.6534Z" fill="#FFD230"/>
<path d="M13.0957 40.7188V37.7821H13.4925V40.7188H13.0957ZM13.3625 39.4401V39.1049H14.1584C14.3303 39.1049 14.4626 39.0609 14.553 38.9727C14.6456 38.8845 14.6897 38.7676 14.6897 38.6177C14.6897 38.4766 14.6434 38.3598 14.553 38.2672C14.4626 38.1746 14.3303 38.1283 14.1606 38.1283H13.3603V37.7821H14.1738C14.359 37.7821 14.5221 37.8174 14.661 37.8902C14.7999 37.9629 14.9057 38.0599 14.9807 38.1834C15.0557 38.3069 15.0931 38.4502 15.0931 38.6111C15.0931 38.772 15.0557 38.922 14.9807 39.0476C14.9057 39.1711 14.7999 39.2681 14.661 39.3364C14.5221 39.4048 14.3612 39.4401 14.1738 39.4401H13.3603H13.3625ZM14.7889 40.7188L13.7218 39.4026L14.0988 39.2703L15.2916 40.7188H14.7889Z" fill="white"/>
<path d="M16.5041 40.7606C16.3012 40.7606 16.1204 40.7143 15.9595 40.6239C15.8008 40.5313 15.6729 40.4078 15.5803 40.2491C15.4877 40.0903 15.4414 39.9117 15.4414 39.7111C15.4414 39.5105 15.4877 39.3363 15.5781 39.1776C15.6685 39.0189 15.7942 38.8954 15.9507 38.8028C16.1072 38.7102 16.2836 38.6661 16.4776 38.6661C16.6606 38.6661 16.8237 38.708 16.9693 38.794C17.1126 38.8778 17.225 38.9968 17.3066 39.1445C17.3881 39.2944 17.4278 39.4642 17.4278 39.656C17.4278 39.6847 17.4278 39.7155 17.4234 39.7464C17.4212 39.7795 17.4146 39.8147 17.4058 39.8544H15.7082V39.537H17.2029L17.0641 39.6604C17.0641 39.5259 17.0398 39.4091 16.9913 39.3165C16.9428 39.2217 16.8744 39.1489 16.7885 39.096C16.7003 39.0431 16.5945 39.0189 16.471 39.0189C16.3475 39.0189 16.2263 39.0475 16.1293 39.1026C16.0301 39.16 15.9551 39.2371 15.9 39.3407C15.8449 39.4444 15.8206 39.5612 15.8206 39.7001C15.8206 39.839 15.8493 39.9647 15.9044 40.0705C15.9595 40.1763 16.0411 40.2579 16.1447 40.3152C16.2483 40.3725 16.3696 40.4012 16.5041 40.4012C16.6165 40.4012 16.7201 40.3813 16.8149 40.3417C16.9097 40.302 16.9913 40.2425 17.0574 40.1631L17.3022 40.4122C17.2029 40.5247 17.0839 40.6106 16.9472 40.6702C16.8083 40.7297 16.6606 40.7583 16.5019 40.7583L16.5041 40.7606Z" fill="white"/>
<path d="M18.6976 40.7606C18.5124 40.7606 18.3449 40.7143 18.195 40.6239C18.0473 40.5313 17.9304 40.4078 17.8444 40.2491C17.7584 40.0903 17.7166 39.914 17.7166 39.7155C17.7166 39.5171 17.7584 39.3407 17.8444 39.182C17.9304 39.0233 18.0473 38.8976 18.195 38.805C18.3427 38.7124 18.5102 38.6661 18.6976 38.6661C18.8498 38.6661 18.9864 38.697 19.1055 38.7609C19.2246 38.8248 19.3216 38.9108 19.3965 39.0233C19.4693 39.1357 19.5112 39.2636 19.52 39.4113V40.0176C19.5112 40.1609 19.4715 40.291 19.3987 40.4034C19.326 40.5158 19.2312 40.604 19.1099 40.668C18.9887 40.7319 18.852 40.7628 18.6998 40.7628L18.6976 40.7606ZM18.7616 40.4012C18.9512 40.4012 19.1033 40.3373 19.2179 40.2094C19.3326 40.0815 19.3921 39.9162 19.3921 39.7155C19.3921 39.581 19.3657 39.4598 19.3105 39.3562C19.2576 39.2526 19.1827 39.171 19.0879 39.1137C18.9931 39.0563 18.8828 39.0277 18.755 39.0277C18.6271 39.0277 18.5169 39.0563 18.4176 39.1159C18.3206 39.1754 18.2435 39.257 18.1884 39.3584C18.1332 39.462 18.1068 39.5788 18.1068 39.7111C18.1068 39.8434 18.1332 39.9669 18.1884 40.0683C18.2435 40.1719 18.3206 40.2535 18.4198 40.3108C18.5191 40.3703 18.6315 40.399 18.7594 40.399L18.7616 40.4012ZM19.3679 40.7187V40.1763L19.4406 39.6847L19.3679 39.1974V38.7058H19.7537V40.7165H19.3679V40.7187Z" fill="white"/>
<path d="M20.3049 40.7188V37.6962H20.6863V40.7188H20.3049Z" fill="white"/>
<path d="M21.3125 40.7188V37.7821H21.7093V40.7188H21.3125ZM21.5793 39.4401V39.1049H22.3752C22.5471 39.1049 22.6794 39.0609 22.7698 38.9727C22.8624 38.8845 22.9065 38.7676 22.9065 38.6177C22.9065 38.4766 22.8602 38.3598 22.7698 38.2672C22.6794 38.1746 22.5471 38.1283 22.3774 38.1283H21.5771V37.7821H22.3906C22.5758 37.7821 22.7389 37.8174 22.8778 37.8902C23.0167 37.9629 23.1225 38.0599 23.1975 38.1834C23.2725 38.3069 23.3099 38.4502 23.3099 38.6111C23.3099 38.772 23.2725 38.922 23.1975 39.0476C23.1225 39.1711 23.0167 39.2681 22.8778 39.3364C22.7389 39.4048 22.578 39.4401 22.3906 39.4401H21.5771H21.5793ZM23.0057 40.7188L21.9386 39.4026L22.3156 39.2703L23.5084 40.7188H23.0057Z" fill="white"/>
<path d="M24.7209 40.7606C24.518 40.7606 24.3372 40.7143 24.1763 40.6239C24.0176 40.5313 23.8897 40.4078 23.7971 40.2491C23.7045 40.0903 23.6582 39.9117 23.6582 39.7111C23.6582 39.5105 23.7045 39.3363 23.7949 39.1776C23.8853 39.0189 24.011 38.8954 24.1675 38.8028C24.324 38.7102 24.5004 38.6661 24.6944 38.6661C24.8774 38.6661 25.0405 38.708 25.186 38.794C25.3294 38.8778 25.4418 38.9968 25.5234 39.1445C25.6049 39.2944 25.6446 39.4642 25.6446 39.656C25.6446 39.6847 25.6446 39.7155 25.6402 39.7464C25.638 39.7795 25.6314 39.8147 25.6226 39.8544H23.925V39.537H25.4197L25.2808 39.6604C25.2808 39.5259 25.2566 39.4091 25.2081 39.3165C25.1596 39.2217 25.0912 39.1489 25.0053 39.096C24.9171 39.0431 24.8113 39.0189 24.6878 39.0189C24.5643 39.0189 24.4431 39.0475 24.3461 39.1026C24.2469 39.16 24.1719 39.2371 24.1168 39.3407C24.0617 39.4444 24.0374 39.5612 24.0374 39.7001C24.0374 39.839 24.0661 39.9647 24.1212 40.0705C24.1763 40.1763 24.2579 40.2579 24.3615 40.3152C24.4651 40.3725 24.5864 40.4012 24.7209 40.4012C24.8333 40.4012 24.9369 40.3813 25.0317 40.3417C25.1265 40.302 25.2081 40.2425 25.2742 40.1631L25.519 40.4122C25.4197 40.5247 25.3007 40.6106 25.164 40.6702C25.0251 40.7297 24.8774 40.7583 24.7187 40.7583L24.7209 40.7606Z" fill="white"/>
<path d="M25.8123 39.0564V38.7103H27.1836V39.0564H25.8123ZM26.3083 40.7209V37.8681H26.6897V40.7209H26.3083Z" fill="white"/>
<path d="M28.3674 40.7541C28.2021 40.7541 28.0521 40.7189 27.9199 40.6461C27.7898 40.5733 27.6862 40.4719 27.6134 40.3396C27.5407 40.2074 27.5032 40.053 27.5032 39.8789V38.7104H27.8846V39.8612C27.8846 39.9715 27.9044 40.0663 27.9419 40.1478C27.9794 40.2294 28.0367 40.2889 28.1095 40.333C28.1822 40.3749 28.2682 40.397 28.3674 40.397C28.5173 40.397 28.6342 40.3507 28.718 40.2559C28.8017 40.1611 28.8458 40.031 28.8458 39.8634V38.7126H29.2272V39.8811C29.2272 40.0552 29.1898 40.2096 29.117 40.3419C29.0442 40.4741 28.9428 40.5778 28.8128 40.6483C28.6827 40.7211 28.535 40.7563 28.3674 40.7563V40.7541Z" fill="white"/>
<path d="M29.7388 40.7187V38.708H30.1202V40.7187H29.7388ZM30.1202 39.5766L29.9769 39.5083C29.9769 39.2526 30.0364 39.0475 30.1555 38.8954C30.2745 38.7433 30.4443 38.6661 30.6669 38.6661C30.7684 38.6661 30.861 38.6837 30.9425 38.719C31.0241 38.7543 31.1013 38.8138 31.1718 38.8954L30.9227 39.1533C30.8808 39.1092 30.8345 39.0762 30.7838 39.0563C30.7331 39.0365 30.6736 39.0277 30.6052 39.0277C30.4641 39.0277 30.3473 39.074 30.2591 39.1622C30.1709 39.2503 30.1246 39.3914 30.1246 39.5766H30.1202Z" fill="white"/>
<path d="M31.4453 40.7187V38.708H31.8267V40.7187H31.4453ZM32.8629 40.7187V39.5458C32.8629 39.3936 32.8166 39.268 32.7218 39.1688C32.627 39.0696 32.5036 39.0211 32.3514 39.0211C32.25 39.0211 32.1596 39.0431 32.0803 39.0894C32.0009 39.1357 31.9392 39.1974 31.8951 39.2746C31.851 39.354 31.8267 39.4444 31.8267 39.5458L31.6702 39.4576C31.6702 39.3055 31.7033 39.1688 31.7716 39.0519C31.84 38.9329 31.9348 38.8403 32.056 38.7697C32.1773 38.7014 32.314 38.6661 32.4661 38.6661C32.6182 38.6661 32.7527 38.7036 32.8695 38.7807C32.9864 38.8579 33.079 38.9571 33.1473 39.0784C33.2157 39.2018 33.2487 39.3319 33.2487 39.4708V40.7187H32.8629Z" fill="white"/>
<path d="M34.4039 40.7606C34.2914 40.7606 34.1834 40.7451 34.082 40.7165C33.9806 40.6878 33.888 40.6437 33.8042 40.5886C33.7204 40.5335 33.6477 40.4673 33.5859 40.3924L33.8307 40.1477C33.9034 40.238 33.9894 40.3042 34.0842 40.3483C34.179 40.3924 34.287 40.4144 34.4061 40.4144C34.5251 40.4144 34.6155 40.3946 34.6817 40.3527C34.7456 40.3108 34.7787 40.2557 34.7787 40.1807C34.7787 40.1058 34.7522 40.0506 34.6993 40.0088C34.6464 39.9669 34.5802 39.9338 34.4987 39.9073C34.4171 39.8809 34.3311 39.8544 34.2385 39.8302C34.1459 39.8059 34.0599 39.7707 33.9784 39.7288C33.8968 39.6869 33.8307 39.6273 33.7777 39.5524C33.7248 39.4774 33.7006 39.3804 33.7006 39.2592C33.7006 39.1379 33.7292 39.0321 33.7866 38.9439C33.8439 38.8557 33.9277 38.7874 34.0335 38.7389C34.1393 38.6904 34.2694 38.6661 34.4193 38.6661C34.578 38.6661 34.7169 38.6926 34.8404 38.7477C34.9639 38.8028 35.0631 38.8844 35.1424 38.9946L34.8977 39.2393C34.8382 39.1666 34.7676 39.1092 34.6861 39.0696C34.6045 39.0299 34.5119 39.01 34.4061 39.01C34.2958 39.01 34.2121 39.0299 34.1547 39.0696C34.0974 39.1092 34.0688 39.1622 34.0688 39.2261C34.0688 39.29 34.0952 39.3451 34.1459 39.3826C34.1966 39.4201 34.2628 39.451 34.3466 39.4752C34.4303 39.5017 34.5163 39.5259 34.6067 39.5546C34.6971 39.581 34.7831 39.6163 34.8647 39.6626C34.9462 39.7089 35.0124 39.7684 35.0653 39.8456C35.1182 39.9228 35.1446 40.022 35.1446 40.1454C35.1446 40.335 35.0785 40.485 34.944 40.5952C34.8095 40.7054 34.631 40.7606 34.4039 40.7606Z" fill="white"/>
<path d="M35.9074 40.7607C35.8258 40.7607 35.7597 40.7343 35.709 40.6791C35.6583 40.624 35.6318 40.5579 35.6318 40.4829C35.6318 40.408 35.6583 40.3374 35.709 40.2867C35.7597 40.236 35.8258 40.2073 35.9074 40.2073C35.989 40.2073 36.0529 40.2338 36.1036 40.2867C36.1565 40.3396 36.183 40.4036 36.183 40.4829C36.183 40.5623 36.1565 40.624 36.1036 40.6791C36.0507 40.7343 35.9846 40.7607 35.9074 40.7607Z" fill="white"/>
<path d="M37.5743 40.7606C37.3892 40.7606 37.2216 40.7143 37.0717 40.6239C36.924 40.5313 36.8071 40.4078 36.7211 40.2491C36.6352 40.0903 36.5933 39.914 36.5933 39.7155C36.5933 39.5171 36.6352 39.3407 36.7211 39.182C36.8071 39.0233 36.924 38.8976 37.0717 38.805C37.2194 38.7124 37.3869 38.6661 37.5743 38.6661C37.7265 38.6661 37.8632 38.697 37.9822 38.7609C38.1013 38.8248 38.1983 38.9108 38.2732 39.0233C38.346 39.1357 38.3879 39.2636 38.3967 39.4113V40.0176C38.3879 40.1609 38.3482 40.291 38.2754 40.4034C38.2027 40.5158 38.1079 40.604 37.9866 40.668C37.8654 40.7319 37.7287 40.7628 37.5765 40.7628L37.5743 40.7606ZM37.6383 40.4012C37.8279 40.4012 37.98 40.3373 38.0946 40.2094C38.2093 40.0815 38.2688 39.9162 38.2688 39.7155C38.2688 39.581 38.2424 39.4598 38.1872 39.3562C38.1343 39.2526 38.0594 39.171 37.9646 39.1137C37.8698 39.0563 37.7595 39.0277 37.6317 39.0277C37.5038 39.0277 37.3936 39.0563 37.2943 39.1159C37.1973 39.1754 37.1202 39.257 37.0651 39.3584C37.0099 39.462 36.9835 39.5788 36.9835 39.7111C36.9835 39.8434 37.0099 39.9669 37.0651 40.0683C37.1202 40.1719 37.1973 40.2535 37.2966 40.3108C37.3958 40.3703 37.5082 40.399 37.6361 40.399L37.6383 40.4012ZM38.2446 40.7187V40.1763L38.3173 39.6847L38.2446 39.1974V38.7058H38.6304V40.7165H38.2446V40.7187Z" fill="white"/>
<path d="M39.3778 38.307C39.3072 38.307 39.2499 38.2827 39.2036 38.2364C39.1573 38.1901 39.1353 38.1306 39.1353 38.0601C39.1353 37.9895 39.1573 37.9344 39.2036 37.8881C39.2477 37.8418 39.3072 37.8175 39.3778 37.8175C39.4483 37.8175 39.5056 37.8418 39.5519 37.8881C39.596 37.9344 39.6203 37.9917 39.6203 38.0601C39.6203 38.1284 39.5982 38.1901 39.5519 38.2364C39.5056 38.2827 39.4483 38.307 39.3778 38.307ZM39.1838 40.7189V38.7082H39.5696V40.7189H39.1838Z" fill="white"/>
</g>
<defs>
<clipPath id="clip0_5990_8515">
<rect width="32.3338" height="34.6907" fill="white" transform="translate(7.28418 6.07016)"/>
</clipPath>
</defs>
</svg>
