<svg width="429" height="398" viewBox="0 0 429 398" fill="none" xmlns="http://www.w3.org/2000/svg">
<g clip-path="url(#clip0_66_12802)">
<path d="M373.929 96.6115C373.929 96.6115 369.259 77.1145 342.035 73.2186C314.81 69.3228 310.915 92.7157 305.472 95.8359C300.029 98.9562 296.916 90.38 288.36 91.1556C279.804 91.9312 275.135 98.9562 271.248 102.076C267.361 105.197 260.353 95.8359 254.91 97.396C249.467 98.9562 244.797 106.757 244.797 106.757H402.718C402.718 106.757 397.275 98.1806 389.493 95.0603C381.711 91.9401 378.598 96.6204 373.937 96.6204L373.929 96.6115Z" stroke="#1F1F26" stroke-linecap="round" stroke-linejoin="round"/>
<path d="M111.753 155.147C111.753 155.147 108.408 141.178 88.8862 138.378C69.3729 135.588 66.5802 152.348 62.6757 154.586C58.7713 156.823 56.5389 150.672 50.4109 151.234C44.2741 151.795 40.93 156.823 38.1462 159.061C35.3624 161.299 30.3373 154.586 26.4328 155.709C22.5284 156.832 19.1843 162.413 19.1843 162.413H132.387C132.387 162.413 128.482 156.262 122.906 154.033C117.329 151.795 115.097 155.147 111.753 155.147Z" stroke="#1F1F26" stroke-linecap="round" stroke-linejoin="round"/>
<path d="M162.644 37.0684C162.644 37.0684 160.527 28.2159 148.156 26.4418C135.793 24.6677 134.023 35.2944 131.551 36.7118C129.078 38.1293 127.664 34.2335 123.777 34.5901C119.891 34.9467 117.774 38.1293 116.004 39.5468C114.234 40.9643 111.059 36.7118 108.586 37.425C106.114 38.1382 103.997 41.6775 103.997 41.6775H175.727C175.727 41.6775 173.254 37.7816 169.723 36.3642C166.193 34.9467 164.778 37.0684 162.653 37.0684H162.644Z" stroke="#1F1F26" stroke-linecap="round" stroke-linejoin="round"/>
<path d="M264.248 55.3174C275.536 55.3174 284.687 46.1452 284.687 34.8308C284.687 23.5163 275.536 14.3442 264.248 14.3442C252.961 14.3442 243.81 23.5163 243.81 34.8308C243.81 46.1452 252.961 55.3174 264.248 55.3174Z" stroke="#1F1F26" stroke-linecap="round" stroke-linejoin="round"/>
<path d="M264.248 0.44574V8.78124" stroke="#1F1F26" stroke-linecap="round" stroke-linejoin="round"/>
<path d="M264.248 62.2621V70.5977" stroke="#1F1F26" stroke-linecap="round" stroke-linejoin="round"/>
<path d="M288.991 10.7158L283.112 16.6175" stroke="#1F1F26" stroke-linecap="round" stroke-linejoin="round"/>
<path d="M245.384 54.4348L239.496 60.3276" stroke="#1F1F26" stroke-linecap="round" stroke-linejoin="round"/>
<path d="M299.237 35.5261H290.921" stroke="#1F1F26" stroke-linecap="round" stroke-linejoin="round"/>
<path d="M237.566 35.5261H229.251" stroke="#1F1F26" stroke-linecap="round" stroke-linejoin="round"/>
<path d="M288.991 60.3276L283.112 54.4348" stroke="#1F1F26" stroke-linecap="round" stroke-linejoin="round"/>
<path d="M245.384 16.6175L239.496 10.7158" stroke="#1F1F26" stroke-linecap="round" stroke-linejoin="round"/>
<path d="M313.539 148.835C313.539 148.835 317.648 147.81 318.875 148.22C320.102 148.63 318.057 150.092 318.057 150.092C318.057 150.092 319.08 150.69 319.693 152.134C320.307 153.578 317.648 152.954 317.648 152.954C317.648 152.954 318.457 153.988 317.648 154.809C316.838 155.629 313.129 151.519 313.129 151.519C313.129 151.519 310.461 153.168 307.998 152.963C305.534 152.758 304.093 152.143 302.457 149.673C300.82 147.204 299.584 145.974 299.584 145.974L297.939 145.359L300.402 143.914C300.402 143.914 302.457 142.06 304.511 142.265C306.566 142.47 307.384 143.085 307.384 143.085C307.384 143.085 308.611 139.796 310.461 138.557C312.311 137.317 318.057 135.677 319.907 134.643C321.757 133.618 321.347 135.258 320.725 136.292C320.102 137.326 318.261 138.146 317.443 138.557C316.625 138.967 321.757 139.172 320.929 140.206C320.102 141.24 317.025 141.65 317.025 141.65C317.025 141.65 319.898 142.675 319.284 143.504C318.67 144.325 316.207 144.325 316.207 144.325C316.207 144.325 317.025 146.384 315.798 146.384H314.561C314.561 146.384 315.175 149.263 313.539 148.853V148.835Z" fill="#085BFD" stroke="#1F1F26" stroke-linecap="round" stroke-linejoin="round"/>
<path d="M307.375 143.076C307.375 143.076 305.73 139.787 306.557 137.727C307.375 135.668 314.971 130.319 314.766 132.378C314.561 134.438 312.507 135.668 312.507 135.668C312.507 135.668 315.584 134.643 315.584 135.463V136.283C315.584 136.283 312.098 137.103 310.452 138.548C308.807 139.992 307.375 143.076 307.375 143.076Z" fill="#1F1F26" stroke="#1F1F26" stroke-linecap="round" stroke-linejoin="round"/>
<path d="M302.572 145.287C302.911 145.287 303.186 145.012 303.186 144.672C303.186 144.332 302.911 144.057 302.572 144.057C302.233 144.057 301.959 144.332 301.959 144.672C301.959 145.012 302.233 145.287 302.572 145.287Z" fill="#1F1F26"/>
<path d="M310.817 150.966C310.444 152.214 308.487 152.731 306.441 152.125C304.396 151.519 303.035 150.012 303.408 148.764C303.782 147.516 305.739 146.999 307.784 147.605C309.83 148.211 311.191 149.718 310.817 150.966Z" fill="#B0AFE8" stroke="#1F1F26" stroke-width="0.5" stroke-linecap="round" stroke-linejoin="round"/>
<path d="M109.333 96.0945C109.333 96.0945 105.224 95.0692 103.997 95.4793C102.77 95.8894 104.815 97.3515 104.815 97.3515C104.815 97.3515 103.792 97.9488 103.179 99.393C102.565 100.837 105.224 100.213 105.224 100.213C105.224 100.213 104.415 101.247 105.224 102.067C106.043 102.888 109.743 98.7779 109.743 98.7779C109.743 98.7779 112.411 100.427 114.874 100.222C117.338 100.017 118.779 99.4019 120.415 96.9325C122.052 94.463 123.288 93.2327 123.288 93.2327L124.933 92.6176L122.47 91.1734C122.47 91.1734 120.415 89.3191 118.361 89.5241C116.306 89.7292 115.488 90.3443 115.488 90.3443C115.488 90.3443 114.261 87.0547 112.411 85.8155C110.561 84.5763 104.815 82.936 102.965 81.9018C101.115 80.8766 101.524 82.517 102.147 83.5511C102.761 84.5763 104.611 85.4054 105.429 85.8155C106.247 86.2256 101.115 86.4306 101.943 87.4648C102.761 88.49 105.847 88.909 105.847 88.909C105.847 88.909 102.974 89.9342 103.588 90.7633C104.202 91.5924 106.665 91.5835 106.665 91.5835C106.665 91.5835 105.847 93.6428 107.074 93.6428H108.302C108.302 93.6428 107.688 96.5224 109.324 96.1123L109.333 96.0945Z" fill="#085BFD" stroke="#1F1F26" stroke-linecap="round" stroke-linejoin="round"/>
<path d="M115.497 90.3265C115.497 90.3265 117.142 87.0369 116.315 84.9775C115.497 82.9181 107.901 77.5692 108.106 79.6285C108.311 81.6879 110.365 82.9181 110.365 82.9181C110.365 82.9181 107.288 81.8929 107.288 82.7131V83.5333C107.288 83.5333 110.774 84.3534 112.42 85.7977C114.065 87.2419 115.497 90.3265 115.497 90.3265Z" fill="#1F1F26" stroke="#1F1F26" stroke-linecap="round" stroke-linejoin="round"/>
<path d="M119.686 91.9312C119.686 92.2699 119.962 92.5463 120.3 92.5463C120.638 92.5463 120.913 92.2699 120.913 91.9312C120.913 91.5924 120.638 91.316 120.3 91.316C119.962 91.316 119.686 91.5924 119.686 91.9312Z" fill="#1F1F26"/>
<path d="M112.055 98.2252C112.428 99.4733 114.385 99.9903 116.431 99.3841C118.476 98.7779 119.837 97.2713 119.464 96.0232C119.09 94.7751 117.133 94.258 115.088 94.8642C113.042 95.4704 111.681 96.9771 112.055 98.2252Z" fill="#B0AFE8" stroke="#1F1F26" stroke-width="0.5" stroke-linecap="round" stroke-linejoin="round"/>
<path d="M98.3138 249.352C98.3138 249.352 90.1936 236.416 75.483 228.767C60.7724 221.118 54.5021 213.567 62.1332 214.022C71.3918 214.566 92.3726 221.938 101.907 247.881C106.025 259.078 98.3049 249.352 98.3049 249.352" fill="#085BFD"/>
<path d="M98.3138 249.352C98.3138 249.352 90.1936 236.416 75.483 228.767C60.7724 221.118 54.5021 213.567 62.1332 214.022C71.3918 214.566 92.3726 221.938 101.907 247.881C106.025 259.078 98.3049 249.352 98.3049 249.352" stroke="#1F1F26" stroke-linecap="round" stroke-linejoin="round"/>
<path d="M97.8246 245.964C97.8246 245.964 90.4693 231.219 76.577 224.113" stroke="#1F1F26" stroke-linecap="round" stroke-linejoin="round"/>
<path d="M107.154 258.293C107.154 258.293 102.512 245.286 105.313 230.532C108.106 215.778 106.256 207.095 102.316 212.791C97.5311 219.692 91.0385 238.752 104.113 260.041C109.751 269.223 107.163 258.302 107.163 258.302" fill="#085BFD"/>
<path d="M107.154 258.293C107.154 258.293 102.512 245.286 105.313 230.532C108.106 215.778 106.256 207.095 102.316 212.791C97.5311 219.692 91.0385 238.752 104.113 260.041C109.751 269.223 107.163 258.302 107.163 258.302" stroke="#1F1F26" stroke-linecap="round" stroke-linejoin="round"/>
<path d="M105.038 256.056C105.038 256.056 98.6873 242.576 101.418 228.714" stroke="#1F1F26" stroke-linecap="round" stroke-linejoin="round"/>
<path d="M98.9097 242.844C98.9097 242.844 94.267 229.837 97.0686 215.083C99.8613 200.328 98.0114 191.645 94.0714 197.342C89.2864 204.242 82.7938 223.302 95.8679 244.591C101.507 253.774 98.9186 242.853 98.9186 242.853" fill="#085BFD"/>
<path d="M98.9097 242.844C98.9097 242.844 94.267 229.837 97.0686 215.083C99.8613 200.328 98.0114 191.645 94.0714 197.342C89.2864 204.242 82.7938 223.302 95.8679 244.591C101.507 253.774 98.9186 242.853 98.9186 242.853" stroke="#1F1F26" stroke-linecap="round" stroke-linejoin="round"/>
<path d="M97.8246 245.964C97.8246 245.964 90.4426 227.127 93.1731 213.264" stroke="#1F1F26" stroke-linecap="round" stroke-linejoin="round"/>
<path d="M283.593 233.233C283.593 233.233 291.713 220.298 306.423 212.649C321.134 205 327.404 197.449 319.773 197.903C310.506 198.447 289.534 205.82 280 231.763C275.882 242.96 283.602 233.233 283.602 233.233" fill="#085BFD"/>
<path d="M283.593 233.233C283.593 233.233 291.713 220.298 306.423 212.649C321.134 205 327.404 197.449 319.773 197.903C310.506 198.447 289.534 205.82 280 231.763C275.882 242.96 283.602 233.233 283.602 233.233" stroke="#1F1F26" stroke-linecap="round" stroke-linejoin="round"/>
<path d="M284.082 229.855C284.082 229.855 291.437 215.109 305.329 208.004" stroke="#1F1F26" stroke-linecap="round" stroke-linejoin="round"/>
<path d="M274.743 242.175C274.743 242.175 279.386 229.168 276.584 214.414C273.791 199.66 275.641 190.976 279.581 196.673C284.366 203.573 290.859 222.633 277.785 243.922C272.146 253.105 274.734 242.184 274.734 242.184" fill="#085BFD"/>
<path d="M274.743 242.175C274.743 242.175 279.386 229.168 276.584 214.414C273.791 199.66 275.641 190.976 279.581 196.673C284.366 203.573 290.859 222.633 277.785 243.922C272.146 253.105 274.734 242.184 274.734 242.184" stroke="#1F1F26" stroke-linecap="round" stroke-linejoin="round"/>
<path d="M276.869 239.946C276.869 239.946 283.219 226.467 280.489 212.604" stroke="#1F1F26" stroke-linecap="round" stroke-linejoin="round"/>
<path d="M282.988 226.726C282.988 226.726 287.631 213.719 284.829 198.964C282.036 184.21 283.886 175.527 287.826 181.224C292.611 188.124 299.104 207.184 286.03 228.473C280.391 237.655 282.979 226.734 282.979 226.734" fill="#085BFD"/>
<path d="M282.988 226.726C282.988 226.726 287.631 213.719 284.829 198.964C282.036 184.21 283.886 175.527 287.826 181.224C292.611 188.124 299.104 207.184 286.03 228.473C280.391 237.655 282.979 226.734 282.979 226.734" stroke="#1F1F26" stroke-linecap="round" stroke-linejoin="round"/>
<path d="M284.082 229.855C284.082 229.855 291.464 211.017 288.733 197.155" stroke="#1F1F26" stroke-linecap="round" stroke-linejoin="round"/>
<path d="M287.293 187.099H202.747L155.449 111.714H239.995L287.293 187.099Z" fill="#1F1F26" stroke="#1F1F26" stroke-linecap="round" stroke-linejoin="round"/>
<path d="M190.989 184.513H104.335V261.235H190.989V184.513Z" fill="#145BE3" stroke="#1F1F26" stroke-linecap="round" stroke-linejoin="round"/>
<path d="M277.634 261.235H190.98V184.513L235.032 114.299L277.634 184.513V261.235Z" fill="#0500FF" fill-opacity="0.27" stroke="#1F1F26" stroke-linecap="round" stroke-linejoin="round"/>
<path d="M209.755 198.26H201.092V224.319H209.755V198.26Z" fill="#145BE3" stroke="#1F1F26" stroke-linecap="round" stroke-linejoin="round"/>
<path d="M218.418 198.26H209.755V224.319H218.418V198.26Z" fill="#1F1F26" stroke="#1F1F26" stroke-linecap="round" stroke-linejoin="round"/>
<path d="M227.089 198.26H218.427V224.319H227.089V198.26Z" fill="#145BE3" stroke="#1F1F26" stroke-linecap="round" stroke-linejoin="round"/>
<path d="M170.044 198.26H162.822V224.319H170.044V198.26Z" fill="#5B8EF9" stroke="#1F1F26" stroke-linecap="round" stroke-linejoin="round"/>
<path d="M177.265 198.26H170.044V224.319H177.265V198.26Z" fill="#1F1F26" stroke="#1F1F26" stroke-linecap="round" stroke-linejoin="round"/>
<path d="M184.487 198.26H177.266V224.319H184.487V198.26Z" fill="#5B8EF9" stroke="#1F1F26" stroke-linecap="round" stroke-linejoin="round"/>
<path d="M116.609 198.26H109.387V224.319H116.609V198.26Z" fill="#5B8EF9" stroke="#1F1F26" stroke-linecap="round" stroke-linejoin="round"/>
<path d="M123.831 198.26H116.609V224.319H123.831V198.26Z" fill="#1F1F26" stroke="#1F1F26" stroke-linecap="round" stroke-linejoin="round"/>
<path d="M131.052 198.26H123.831V224.319H131.052V198.26Z" fill="#5B8EF9" stroke="#1F1F26" stroke-linecap="round" stroke-linejoin="round"/>
<path d="M253.807 198.26H245.144V224.319H253.807V198.26Z" fill="#145BE3" stroke="#1F1F26" stroke-linecap="round" stroke-linejoin="round"/>
<path d="M262.47 198.26H253.807V224.319H262.47V198.26Z" fill="#1F1F26" stroke="#1F1F26" stroke-linecap="round" stroke-linejoin="round"/>
<path d="M271.132 198.26H262.47V224.319H271.132V198.26Z" fill="#145BE3" stroke="#1F1F26" stroke-linecap="round" stroke-linejoin="round"/>
<path d="M233.591 155.557H227.81V171.48H233.591V155.557Z" fill="#145BE3" stroke="#1F1F26" stroke-linecap="round" stroke-linejoin="round"/>
<path d="M239.372 155.557H233.591V171.48H239.372V155.557Z" fill="#1F1F26" stroke="#1F1F26" stroke-linecap="round" stroke-linejoin="round"/>
<path d="M245.144 155.557H239.363V171.48H245.144V155.557Z" fill="#145BE3" stroke="#1F1F26" stroke-linecap="round" stroke-linejoin="round"/>
<path d="M99.5056 187.099H192.554L239.852 111.714H146.804L99.5056 187.099Z" fill="#085BFD" stroke="#1F1F26" stroke-linecap="round" stroke-linejoin="round"/>
<path d="M172.151 145.76H135.411V170.133H172.151V145.76Z" fill="#145BE3" stroke="#1F1F26" stroke-linecap="round" stroke-linejoin="round"/>
<path d="M172.16 145.76L197.553 128.286L172.16 170.133V145.76Z" fill="#0500FF" fill-opacity="0.27" stroke="#1F1F26" stroke-linecap="round" stroke-linejoin="round"/>
<path d="M132.467 146.589H170.951L197.553 128.286H159.068L132.467 146.589Z" fill="#085BFD" stroke="#1F1F26" stroke-linecap="round" stroke-linejoin="round"/>
<path d="M150.192 150.939H144.411V166.862H150.192V150.939Z" fill="#5B8EF9" stroke="#1F1F26" stroke-linecap="round" stroke-linejoin="round"/>
<path d="M155.964 150.939H150.183V166.862H155.964V150.939Z" fill="#1F1F26" stroke="#1F1F26" stroke-linecap="round" stroke-linejoin="round"/>
<path d="M161.746 150.939H155.964V166.862H161.746V150.939Z" fill="#5B8EF9" stroke="#1F1F26" stroke-linecap="round" stroke-linejoin="round"/>
<path d="M217.457 100.276H214.22V123.927L217.457 118.703V100.276Z" fill="#0500FF" fill-opacity="0.27" stroke="#1F1F26" stroke-linecap="round" stroke-linejoin="round"/>
<path d="M214.371 100.276H204.819V123.927H214.371V100.276Z" fill="#145BE3" stroke="#1F1F26" stroke-linecap="round" stroke-linejoin="round"/>
<path d="M158.784 202.646H136.54V261.235H158.784V202.646Z" fill="#1F1F26" stroke="#1F1F26" stroke-linecap="round" stroke-linejoin="round"/>
<path d="M157.601 231.861C157.601 230.773 156.72 229.89 155.635 229.89C154.55 229.89 153.67 230.773 153.67 231.861C153.67 232.948 154.55 233.831 155.635 233.831C156.72 233.831 157.601 232.948 157.601 231.861Z" fill="#B0AFE8" stroke="#1F1F26" stroke-linecap="round" stroke-linejoin="round"/>
<path d="M99.7457 248.977C99.7457 248.977 81.1218 238.761 63.7252 236.862C46.3286 234.963 36.2695 243.084 36.3496 246.615C36.4385 250.145 48.5076 250.404 50.8023 250.992C53.088 251.58 67.0782 247.711 87.73 252.623C108.373 257.545 111.014 258.552 111.014 258.552L99.7457 248.968V248.977Z" fill="#FFD8D3" stroke="#1F1F26" stroke-linecap="round" stroke-linejoin="round"/>
<path d="M91.9546 248.745C91.9546 248.745 72.5213 240.169 55.0269 239.786C37.5325 239.394 28.2027 248.353 28.594 251.866C28.9854 255.369 41.0367 254.594 43.3669 254.986C45.6971 255.378 59.3049 250.314 80.2946 253.426C101.284 256.546 104.006 257.322 104.006 257.322L91.9546 248.754V248.745Z" fill="#FFD8D3" stroke="#1F1F26" stroke-linecap="round" stroke-linejoin="round"/>
<path d="M340.398 241.533L313.414 234.205C313.414 234.205 294.301 218.987 271.248 220.681C248.195 222.375 227.392 231.388 220.641 236.461C213.891 241.533 205.459 246.606 203.769 247.729C202.08 248.852 179.026 242.657 166.664 247.729C154.292 252.802 144.731 262.947 144.731 262.947C144.731 262.947 92.4438 247.168 79.512 244.912C66.5802 242.657 51.3982 243.789 40.7165 251.679C30.0349 259.568 32.2851 264.641 37.906 265.764C43.527 266.887 44.6566 261.253 75.5808 269.714C106.505 278.165 144.18 300.149 159.362 308.601C174.544 317.052 199.847 328.891 216.71 323.818C233.582 318.746 279.679 301.272 290.37 301.272C301.06 301.272 335.347 303.528 335.347 303.528L340.407 241.533H340.398Z" fill="#FFD8D3" stroke="#1F1F26" stroke-linecap="round" stroke-linejoin="round"/>
<path d="M325.714 278.816L302.519 301.139L335.338 303.528L325.714 278.816Z" fill="#1F1F26" stroke="#1F1F26" stroke-linecap="round" stroke-linejoin="round"/>
<path d="M144.731 262.947C144.731 262.947 139.511 269.829 141.707 278.744C143.068 284.254 149.481 283.032 161.141 280.697C172.801 278.361 161.914 276.801 189.13 276.409C216.337 276.016 245.491 275.241 247.047 275.241" stroke="#1F1F26" stroke-linecap="round" stroke-linejoin="round"/>
<path d="M144.536 282.07C144.536 282.07 145.052 278.513 148.84 276.311C148.84 276.311 155.306 272.95 159.371 272.95C163.435 272.95 166.788 277.265 165.597 278.709" stroke="#1F1F26" stroke-linecap="round" stroke-linejoin="round"/>
<path d="M179.48 275.348V270.552" stroke="#1F1F26" stroke-linecap="round" stroke-linejoin="round"/>
<path d="M181.872 265.996C181.872 265.996 182.593 268.635 182.113 272.718" stroke="#1F1F26" stroke-linecap="round" stroke-linejoin="round"/>
<path d="M327.787 230.327H364.047V329.524H327.787C325.581 329.524 323.793 327.732 323.793 325.521V234.321C323.793 232.11 325.581 230.318 327.787 230.318V230.327Z" fill="#085BFD" stroke="#1F1F26" stroke-linecap="round" stroke-linejoin="round"/>
<path d="M364.35 225.228H428.555V337.271H364.35C362.678 337.271 361.317 335.907 361.317 334.231V228.277C361.317 226.601 362.678 225.237 364.35 225.237V225.228Z" fill="#085BFD" stroke="#1F1F26" stroke-linecap="round" stroke-linejoin="round"/>
<path d="M329.37 239.411H359.298" stroke="#1F1F26" stroke-linecap="round" stroke-linejoin="round"/>
<path d="M358.898 251.188H328.472" stroke="#1F1F26" stroke-linecap="round" stroke-linejoin="round"/>
<path d="M327.404 272.584H348.216" stroke="#1F1F26" stroke-linecap="round" stroke-linejoin="round"/>
<path d="M351.952 272.584H358.898" stroke="#1F1F26" stroke-linecap="round" stroke-linejoin="round"/>
</g>
<defs>
<clipPath id="clip0_66_12802">
<rect width="429" height="398" fill="white"/>
</clipPath>
</defs>
</svg>
