<svg width="419" height="267" viewBox="0 0 419 267" fill="none" xmlns="http://www.w3.org/2000/svg">
<g clip-path="url(#clip0_66_12887)">
<path d="M57.6619 183.008H46.2941V237.885H57.6619V183.008Z" fill="#397AFA"/>
<path d="M145.443 160.541H134.075V237.892H145.443V160.541Z" fill="#397AFA"/>
<path d="M102.498 165.39H91.1302V237.892H102.498V165.39Z" fill="#397AFA"/>
<path d="M67.4563 156.068V237.885H79.8562V156.068H67.4563ZM68.4884 237.22V156.885H78.8313V237.22H68.4884Z" fill="#D0D0FA" fill-opacity="0.39"/>
<path d="M112.509 134.519V237.885H124.909V134.519H112.509ZM113.541 237.047V135.552H123.884V237.047H113.541Z" fill="#D0D0FA" fill-opacity="0.39"/>
<path d="M226.541 40.2003H209.587V160.895H226.541V40.2003Z" fill="#397AFA"/>
<path d="M357.441 45.5479H340.486V160.895H357.441V45.5479Z" fill="#397AFA"/>
<path d="M293.405 52.7742H276.451V160.895H293.405V52.7742Z" fill="#397AFA"/>
<path d="M241.142 6.74939V160.895H259.627V6.74939H241.142ZM242.68 159.645V8.28138H258.097V159.638H242.68V159.645Z" fill="#D0D0FA" fill-opacity="0.39"/>
<path d="M308.332 6.74939V160.895H326.816V6.74939H308.332ZM309.869 159.645V8.28138H325.286V159.638H309.869V159.645Z" fill="#D0D0FA" fill-opacity="0.39"/>
<path d="M366.917 103.402V159.544H385.402V103.402H366.917ZM368.455 157.976V104.934H383.872V157.976H368.455Z" fill="#D0D0FA" fill-opacity="0.39"/>
<path d="M387.307 70.6667C387.307 71.6205 386.535 72.3865 385.589 72.3865C384.644 72.3865 383.872 71.6133 383.872 70.6667C383.872 69.72 384.644 68.9468 385.589 68.9468C386.535 68.9468 387.307 69.72 387.307 70.6667Z" fill="#397AFA"/>
<path d="M405.727 13.0436C405.727 13.9975 404.954 14.7635 404.009 14.7635C403.063 14.7635 402.291 13.9903 402.291 13.0436C402.291 12.097 403.063 11.3237 404.009 11.3237C404.954 11.3237 405.727 12.097 405.727 13.0436Z" fill="#397AFA"/>
<path d="M362.774 26.434C361.172 26.434 359.873 25.1333 359.873 23.529C359.873 21.9248 361.172 20.624 362.774 20.624C364.377 20.624 365.676 21.9248 365.676 23.529C365.676 25.1333 364.377 26.434 362.774 26.434ZM362.774 21.3467C361.569 21.3467 360.595 22.3294 360.595 23.529C360.595 24.7286 361.576 25.7114 362.774 25.7114C363.972 25.7114 364.954 24.7286 364.954 23.529C364.954 22.3294 363.972 21.3467 362.774 21.3467Z" fill="#D0D0FA" fill-opacity="0.39"/>
<path d="M416.091 53.15C414.489 53.15 413.19 51.8492 413.19 50.245C413.19 48.6407 414.489 47.34 416.091 47.34C417.694 47.34 418.993 48.6407 418.993 50.245C418.993 51.8492 417.694 53.15 416.091 53.15ZM416.091 48.0626C414.886 48.0626 413.911 49.0454 413.911 50.245C413.911 51.4445 414.893 52.4273 416.091 52.4273C417.289 52.4273 418.271 51.4445 418.271 50.245C418.271 49.0454 417.289 48.0626 416.091 48.0626Z" fill="#D0D0FA" fill-opacity="0.39"/>
<path d="M27.4344 219.32C27.4344 220.274 26.6621 221.04 25.7166 221.04C24.7711 221.04 23.9988 220.267 23.9988 219.32C23.9988 218.374 24.7711 217.6 25.7166 217.6C26.6621 217.6 27.4344 218.374 27.4344 219.32Z" fill="#397AFA"/>
<path d="M44.136 163.424C45.0847 163.424 45.8538 162.654 45.8538 161.704C45.8538 160.755 45.0847 159.985 44.136 159.985C43.1873 159.985 42.4182 160.755 42.4182 161.704C42.4182 162.654 43.1873 163.424 44.136 163.424Z" fill="#397AFA"/>
<path d="M2.9015 175.095C1.29918 175.095 0 173.794 0 172.19C0 170.586 1.29918 169.285 2.9015 169.285C4.50382 169.285 5.803 170.586 5.803 172.19C5.803 173.794 4.50382 175.095 2.9015 175.095ZM2.9015 170.008C1.69615 170.008 0.721767 170.99 0.721767 172.19C0.721767 173.39 1.70337 174.372 2.9015 174.372C4.09963 174.372 5.08124 173.39 5.08124 172.19C5.08124 170.99 4.09963 170.008 2.9015 170.008Z" fill="#D0D0FA" fill-opacity="0.39"/>
<path d="M5.44208 123.52C5.44208 124.93 4.30169 126.064 2.90146 126.064C1.50123 126.064 0.36084 124.922 0.36084 123.52C0.36084 122.118 1.50123 120.977 2.90146 120.977C4.30169 120.977 5.44208 122.118 5.44208 123.52Z" fill="#D0D0FA" fill-opacity="0.39"/>
<path d="M364.499 160.563C368.036 157.463 368.332 151.761 363.121 145.799L302.824 76.8597C297.613 70.8979 290.518 68.5782 286.982 71.6784C283.445 74.7785 284.809 82.1205 290.02 88.0822L350.317 157.022C355.528 162.984 360.963 163.663 364.499 160.563Z" fill="#576184"/>
<path d="M359.765 162.745C359.18 162.745 358.574 162.68 357.96 162.55C355.304 161.979 352.569 160.151 350.042 157.268L289.746 88.328C284.412 82.2289 283.062 74.634 286.736 71.411C290.417 68.1881 297.75 70.5294 303.084 76.6285L363.381 145.575C365.885 148.444 367.293 151.443 367.437 154.247C367.574 156.848 366.614 159.19 364.723 160.845C363.287 162.109 361.591 162.752 359.75 162.752L359.765 162.745ZM290.995 70.6595C289.522 70.6595 288.216 71.0714 287.22 71.953C283.842 74.9158 285.221 82.0483 290.295 87.851L350.591 156.791C353.009 159.558 355.614 161.307 358.112 161.842C360.414 162.333 362.543 161.806 364.261 160.295C365.979 158.792 366.852 156.653 366.73 154.276C366.592 151.631 365.25 148.784 362.847 146.038L302.55 77.0982C298.977 73.0081 294.51 70.6595 290.995 70.6595Z" fill="#353148"/>
<path d="M305.625 80.4422L293.685 90.9114C292.072 92.3254 289.623 92.1578 288.216 90.5486L283.813 85.5145C282.4 83.8999 282.563 81.4424 284.176 80.0284L296.116 69.5592C297.728 68.1452 300.178 68.3128 301.585 69.922L305.988 74.9561C307.401 76.5707 307.233 79.0228 305.626 80.432L305.625 80.4422Z" fill="#397AFA"/>
<path d="M291.125 92.2158C291.031 92.2158 290.937 92.2158 290.836 92.2086C289.703 92.1363 288.671 91.6232 287.927 90.7705L283.524 85.7337C281.987 83.9705 282.16 81.2823 283.921 79.7431L295.859 69.2721C296.711 68.5277 297.808 68.1592 298.934 68.2315C300.067 68.3037 301.099 68.8168 301.843 69.6695L306.246 74.7063C306.989 75.559 307.364 76.6502 307.285 77.7847C307.213 78.9193 306.7 79.9526 305.849 80.6969L293.903 91.168C293.124 91.8545 292.142 92.223 291.117 92.223L291.125 92.2158ZM298.653 68.9469C297.801 68.9469 296.985 69.2504 296.336 69.8213L284.398 80.2923C282.94 81.5713 282.788 83.8043 284.066 85.264L288.468 90.3008C289.089 91.009 289.948 91.4353 290.879 91.4931C291.825 91.5582 292.727 91.2475 293.427 90.626L305.372 80.155C306.08 79.5335 306.505 78.6736 306.563 77.7414C306.628 76.8019 306.318 75.8986 305.697 75.1905L301.294 70.1537C300.674 69.4455 299.815 69.0191 298.884 68.9613C298.804 68.9613 298.725 68.9541 298.645 68.9541L298.653 68.9469Z" fill="#121936"/>
<path d="M304.311 81.3979C304.21 81.3979 304.109 81.3545 304.037 81.275L296.278 72.3071C296.148 72.1554 296.163 71.9313 296.314 71.794C296.466 71.664 296.689 71.6784 296.827 71.8302L304.586 80.7981C304.716 80.9498 304.701 81.1739 304.55 81.3039C304.485 81.3618 304.398 81.3907 304.311 81.3907V81.3979Z" fill="#121936"/>
<path d="M301.157 84.7365C301.056 84.7365 300.955 84.6931 300.883 84.6136L297.007 80.1333C296.877 79.9815 296.891 79.7575 297.043 79.6202C297.195 79.4901 297.418 79.5046 297.548 79.6563L301.424 84.1367C301.554 84.2884 301.54 84.5125 301.388 84.6425C301.323 84.7003 301.236 84.7293 301.15 84.7293L301.157 84.7365Z" fill="#121936"/>
<path d="M229.818 74.4099C246.115 93.0467 274.423 94.9256 293.037 78.6084C311.652 62.2913 313.528 33.9495 297.231 15.3127C280.933 -3.32416 252.625 -5.20301 234.011 11.1141C215.397 27.4313 213.52 55.7731 229.818 74.4099ZM240.327 17.9286C255.094 4.97894 277.548 6.4748 290.482 21.26C303.416 36.0451 301.922 58.5264 287.155 71.476C272.387 84.4257 249.933 82.9298 236.999 68.1447C224.065 53.3595 225.559 30.8783 240.327 17.9286Z" fill="#121936"/>
<path d="M236.068 68.8384C249.508 84.2016 272.842 85.7553 288.194 72.2998C303.539 58.8443 305.091 35.4814 291.652 20.1109C278.212 4.74045 254.878 3.19401 239.526 16.6495C224.181 30.105 222.629 53.4679 236.068 68.8384Z" fill="#4444E9"/>
<path opacity="0.69" d="M252.142 29.0717C255.65 33.0823 261.749 33.487 265.754 29.975C269.76 26.463 270.164 20.3567 266.657 16.3461C263.149 12.3354 257.05 11.9307 253.044 15.4428C249.038 18.9548 248.634 25.0611 252.142 29.0717Z" fill="#D0D0FA" fill-opacity="0.39"/>
<path d="M349.212 136.058C349.104 135.639 307.559 131.491 307.559 131.491L293.824 179.836C292.713 183.745 292.041 187.763 291.818 191.824L287.783 250.741C287.718 251.709 288.49 252.533 289.465 252.518L308.18 252.287C309.176 252.273 310.006 251.521 310.114 250.531L315.152 204.998L321.489 189.432L323.489 250.726C323.525 251.76 324.376 252.569 325.401 252.554H345.163C345.813 252.554 346.347 252.056 346.405 251.406C347.531 228.888 348.657 206.371 349.783 183.853C350.295 173.549 351.645 163.273 351.522 152.939C351.45 146.963 350.584 141.521 349.205 136.058H349.212Z" fill="#121936"/>
<path d="M320.587 193.139C320.544 193.139 320.5 193.132 320.457 193.11C320.27 193.038 320.183 192.828 320.255 192.641L329.559 169.054C329.631 168.866 329.84 168.772 330.028 168.851C330.215 168.924 330.302 169.133 330.23 169.321L320.926 192.908C320.869 193.052 320.731 193.139 320.594 193.139H320.587Z" fill="#D0D0FA" fill-opacity="0.39"/>
<path d="M326.902 252.403L325.993 253.19L313.124 264.832C312.272 265.605 312.828 267.022 313.976 267.007L342.796 266.61C343.568 266.603 344.174 265.959 344.153 265.186L344.102 252.41H326.902V252.403Z" fill="#397AFA"/>
<path d="M313.124 264.832L313.571 264.427C313.788 264.623 314.069 264.76 314.416 264.753L343.236 264.355C343.59 264.355 343.907 264.211 344.145 263.987V265.186C344.174 265.959 343.561 266.595 342.796 266.61L313.976 267.007C312.828 267.022 312.272 265.605 313.124 264.832Z" fill="#121936"/>
<path d="M317.31 264.984C317.115 264.984 316.949 264.825 316.949 264.623C316.949 264.42 317.108 264.261 317.31 264.261L344.131 264.023C344.326 264.023 344.492 264.182 344.492 264.384C344.492 264.586 344.333 264.745 344.131 264.745L317.31 264.984Z" fill="#D0D0FA" fill-opacity="0.39"/>
<path d="M328.411 256.182C328.317 256.182 328.216 256.146 328.144 256.066L325.733 253.429C325.596 253.284 325.611 253.053 325.755 252.916C325.899 252.786 326.13 252.793 326.267 252.937L328.678 255.575C328.815 255.72 328.801 255.951 328.657 256.088C328.584 256.153 328.498 256.182 328.411 256.182Z" fill="#D0D0FA" fill-opacity="0.39"/>
<path d="M326.426 258.054C326.332 258.054 326.231 258.018 326.159 257.938L323.748 255.301C323.611 255.156 323.626 254.925 323.77 254.787C323.914 254.65 324.145 254.665 324.283 254.809L326.693 257.447C326.83 257.591 326.816 257.823 326.672 257.96C326.599 258.025 326.513 258.054 326.426 258.054Z" fill="#D0D0FA" fill-opacity="0.39"/>
<path d="M324.564 259.897C324.47 259.897 324.369 259.86 324.297 259.781L321.886 257.143C321.749 256.999 321.764 256.767 321.908 256.63C322.052 256.493 322.283 256.507 322.42 256.652L324.831 259.289C324.968 259.434 324.954 259.665 324.809 259.803C324.737 259.868 324.651 259.897 324.564 259.897Z" fill="#D0D0FA" fill-opacity="0.39"/>
<path d="M328.361 252.93L328.137 252.851C327.17 252.359 327.48 248.334 327.531 248.067C327.61 247.648 327.841 247.286 328.195 247.041C328.548 246.802 328.967 246.708 329.385 246.788C329.804 246.867 330.165 247.099 330.41 247.453C330.649 247.807 330.742 248.226 330.663 248.645C330.569 249.165 329.154 252.533 328.519 252.844L328.361 252.923V252.93ZM329.097 247.482C328.924 247.482 328.75 247.532 328.606 247.633C328.411 247.763 328.281 247.966 328.245 248.197C328.115 248.912 328.137 251.196 328.375 251.984C328.866 251.232 329.869 249.042 329.963 248.515C330.006 248.284 329.963 248.052 329.826 247.857C329.696 247.662 329.494 247.532 329.263 247.496C329.212 247.489 329.154 247.482 329.104 247.482H329.097Z" fill="#D0D0FA" fill-opacity="0.39"/>
<path d="M327.935 252.909C326.7 252.909 324.116 251.947 323.979 251.868C323.221 251.42 322.969 250.437 323.409 249.678C323.857 248.92 324.838 248.667 325.589 249.115C326 249.353 328.353 251.21 328.599 252.193C328.656 252.439 328.599 252.605 328.541 252.706C328.454 252.851 328.231 252.901 327.935 252.901V252.909ZM324.788 249.621C324.716 249.621 324.643 249.628 324.564 249.649C324.34 249.707 324.145 249.852 324.03 250.054C323.784 250.473 323.929 251.008 324.34 251.254C324.824 251.536 327.105 252.143 327.877 252.215C327.574 251.651 325.856 250.119 325.228 249.751C325.091 249.671 324.939 249.628 324.788 249.628V249.621Z" fill="#D0D0FA" fill-opacity="0.39"/>
<path d="M290.006 252.403L289.096 253.19L276.227 264.832C275.376 265.605 275.931 267.022 277.079 267.007L305.899 266.61C306.671 266.603 307.278 265.959 307.256 265.186L307.206 252.41H290.006V252.403Z" fill="#397AFA"/>
<path d="M276.227 264.832L276.675 264.427C276.891 264.623 277.173 264.76 277.519 264.753L306.339 264.355C306.693 264.355 307.011 264.211 307.249 263.987V265.186C307.278 265.959 306.664 266.595 305.899 266.61L277.079 267.007C275.931 267.022 275.376 265.605 276.227 264.832Z" fill="#121936"/>
<path d="M280.406 264.984C280.211 264.984 280.045 264.825 280.045 264.623C280.045 264.42 280.204 264.261 280.406 264.261L307.227 264.023C307.422 264.023 307.588 264.182 307.588 264.384C307.588 264.586 307.429 264.745 307.227 264.745L280.406 264.984Z" fill="#D0D0FA" fill-opacity="0.39"/>
<path d="M301.128 260.59C300.587 260.59 300.053 260.424 299.591 260.113C298.985 259.701 298.58 259.08 298.443 258.357C298.162 256.869 299.143 255.43 300.623 255.149C301.345 255.011 302.074 255.163 302.673 255.575C303.279 255.987 303.683 256.608 303.82 257.331C303.958 258.054 303.806 258.784 303.395 259.383C302.983 259.99 302.363 260.395 301.641 260.532C301.468 260.568 301.294 260.583 301.121 260.583L301.128 260.59ZM299.151 258.227C299.252 258.755 299.555 259.217 299.995 259.521C300.443 259.824 300.977 259.933 301.504 259.839C302.593 259.629 303.315 258.574 303.113 257.476C303.012 256.948 302.709 256.486 302.269 256.182C301.821 255.879 301.287 255.77 300.76 255.864C299.67 256.074 298.949 257.129 299.151 258.227Z" fill="#D0D0FA" fill-opacity="0.39"/>
<path d="M291.507 256.182C291.413 256.182 291.312 256.146 291.24 256.066L288.829 253.429C288.692 253.284 288.707 253.053 288.851 252.916C288.995 252.786 289.226 252.793 289.364 252.937L291.774 255.575C291.911 255.72 291.897 255.951 291.753 256.088C291.68 256.153 291.594 256.182 291.507 256.182Z" fill="#D0D0FA" fill-opacity="0.39"/>
<path d="M289.53 258.054C289.436 258.054 289.335 258.018 289.262 257.938L286.852 255.301C286.715 255.156 286.729 254.925 286.873 254.787C287.018 254.65 287.249 254.665 287.386 254.809L289.797 257.447C289.934 257.591 289.919 257.823 289.775 257.96C289.703 258.025 289.616 258.054 289.53 258.054Z" fill="#D0D0FA" fill-opacity="0.39"/>
<path d="M287.66 259.897C287.566 259.897 287.465 259.86 287.393 259.781L284.982 257.143C284.845 256.999 284.86 256.767 285.004 256.63C285.148 256.493 285.379 256.507 285.516 256.652L287.927 259.289C288.064 259.434 288.05 259.665 287.906 259.803C287.833 259.868 287.747 259.897 287.66 259.897Z" fill="#D0D0FA" fill-opacity="0.39"/>
<path d="M291.464 252.93L291.24 252.851C290.273 252.359 290.583 248.334 290.634 248.067C290.793 247.2 291.623 246.622 292.496 246.788C292.915 246.867 293.275 247.099 293.521 247.453C293.759 247.807 293.853 248.226 293.773 248.645C293.68 249.165 292.265 252.533 291.637 252.843L291.478 252.923L291.464 252.93ZM292.2 247.482C291.789 247.482 291.42 247.778 291.341 248.197C291.211 248.905 291.233 251.196 291.471 251.984C291.962 251.232 292.958 249.042 293.059 248.515C293.102 248.284 293.059 248.052 292.922 247.857C292.792 247.662 292.59 247.532 292.359 247.496C292.308 247.489 292.251 247.482 292.2 247.482Z" fill="#D0D0FA" fill-opacity="0.39"/>
<path d="M291.031 252.909C289.797 252.909 287.213 251.947 287.076 251.868C286.318 251.42 286.065 250.437 286.505 249.678C286.953 248.92 287.927 248.667 288.685 249.115C289.096 249.353 291.449 251.21 291.695 252.193C291.753 252.439 291.695 252.605 291.637 252.706C291.55 252.843 291.327 252.901 291.031 252.901V252.909ZM287.884 249.621C287.581 249.621 287.292 249.772 287.126 250.054C286.881 250.466 287.025 251.008 287.436 251.254C287.92 251.536 290.201 252.143 290.973 252.215C290.67 251.651 288.952 250.119 288.324 249.751C288.187 249.671 288.035 249.628 287.884 249.628V249.621Z" fill="#D0D0FA" fill-opacity="0.39"/>
<path d="M266.123 76.9248C264.961 76.2527 263.633 75.8914 262.882 77.3945C262.016 78.6519 262.961 79.6274 264.087 80.4007C263.315 80.0249 262.535 79.9382 261.987 80.7981C260.832 82.2217 261.915 83.5658 263.163 84.3824C261.756 83.9705 261.366 86.413 262.658 87.8366L269.255 95.9301C270.634 97.715 275.188 98.4449 276.632 98.7123C276.935 98.7701 277.245 98.7267 277.512 98.575C280.558 96.8696 281.771 90.9295 280.731 85.9361C280.731 85.9361 278.429 78.4568 277.173 76.101C277.036 75.848 276.899 75.5951 276.682 75.4C276.473 75.2049 276.177 75.082 275.895 75.1399C275.527 75.2121 275.289 75.5662 275.13 75.8986C274.632 76.9464 274.531 78.1171 274.43 79.2806C273.723 78.5579 272.979 77.7775 272.171 76.9175C270.338 75.2193 267.66 72.0542 265.588 74.5834C264.946 75.5228 265.408 76.3178 266.115 76.932L266.123 76.9248Z" fill="#FFD8D3"/>
<path opacity="0.36" d="M274.437 79.2661L278.032 83.6525C278.032 83.6525 275.426 77.9003 274.712 77.1704L274.437 79.2661Z" fill="#DA8470"/>
<path d="M268.504 79.6346C268.411 79.6346 268.317 79.5985 268.245 79.5263C267.371 78.6085 265.863 77.0837 265.545 76.8959C265.372 76.7947 265.314 76.5707 265.415 76.4045C265.516 76.231 265.74 76.1732 265.906 76.2744C266.397 76.5634 268.367 78.6157 268.757 79.0276C268.894 79.1722 268.887 79.4034 268.743 79.5407C268.67 79.6057 268.584 79.6419 268.49 79.6419L268.504 79.6346Z" fill="#DA8470"/>
<path d="M266.022 82.7708C265.928 82.7708 265.834 82.7347 265.762 82.6624L263.596 80.4729C263.459 80.3283 263.459 80.1043 263.596 79.9598C263.741 79.8225 263.964 79.8225 264.109 79.9598L266.274 82.1494C266.411 82.2939 266.411 82.5179 266.274 82.6624C266.202 82.7347 266.115 82.7636 266.022 82.7636V82.7708Z" fill="#DA8470"/>
<path d="M264.361 85.8927C264.275 85.8927 264.181 85.8566 264.109 85.7915L262.918 84.6425C262.774 84.5052 262.774 84.274 262.911 84.1295C263.048 83.9849 263.279 83.9849 263.423 84.1222L264.614 85.2712C264.758 85.4085 264.758 85.6398 264.621 85.7843C264.549 85.8566 264.455 85.8927 264.361 85.8927Z" fill="#DA8470"/>
<path d="M333.254 58.9528C332.034 58.5553 330.995 57.7965 330.216 56.8282L333.99 56.9511C334.301 56.9583 334.604 56.9366 334.9 56.886C335.138 56.8427 335.369 56.7776 335.585 56.6981C335.6 56.6981 335.622 56.6837 335.636 56.6837C335.845 56.6042 336.047 56.5102 336.242 56.4019C336.271 56.3874 336.3 56.3729 336.329 56.3513C336.517 56.2429 336.697 56.1128 336.87 55.9755C336.892 55.961 336.914 55.9394 336.935 55.9177C337.108 55.7732 337.274 55.6142 337.426 55.448C337.578 55.2818 337.707 55.0939 337.83 54.906C337.845 54.8843 337.859 54.8554 337.881 54.8337C337.996 54.6458 338.09 54.4507 338.177 54.2556C338.191 54.2195 338.205 54.1834 338.22 54.1472C338.299 53.9449 338.364 53.7353 338.415 53.5185C338.422 53.4824 338.429 53.4535 338.436 53.4174C338.48 53.1861 338.516 52.9549 338.523 52.7164V52.6152C338.53 52.4418 338.523 52.2684 338.509 52.0949C338.509 52.0443 338.494 51.9938 338.487 51.9432C338.473 51.8203 338.451 51.7047 338.429 51.5819C338.415 51.5313 338.408 51.4807 338.393 51.4229C338.364 51.2928 338.328 51.17 338.285 51.0471C338.27 51.011 338.263 50.9748 338.249 50.9459C338.191 50.787 338.119 50.628 338.047 50.4762C338.047 50.4762 338.047 50.469 338.047 50.4618C337.974 50.3172 337.888 50.1799 337.801 50.0426C337.78 50.0137 337.765 49.9921 337.744 49.9632C337.664 49.8475 337.578 49.7391 337.484 49.6307C337.462 49.6091 337.448 49.5874 337.426 49.5657C337.195 49.3056 336.942 49.0743 336.654 48.8792C335.982 48.4023 335.167 48.1132 334.286 48.0843L328.743 47.9036C328.887 46.9136 329.104 45.9236 329.364 44.9914C329.927 42.9753 328.108 41.0892 326.073 41.5733C320.125 42.9825 317.816 43.0475 316.43 42.8163C316.249 42.7874 316.083 42.7512 315.925 42.7079L313.11 57.3774C312.027 62.3419 315.253 64.7989 320.082 66.0274L320.147 71.9747C320.19 76.0504 323.106 79.3456 326.628 79.295H326.773C330.295 79.2444 333.673 76.8742 333.629 72.7913L333.247 63.8522C333.074 63.8956 332.9 63.9245 332.72 63.939L333.254 58.96V58.9528Z" fill="#FFD8D3"/>
<path d="M334.589 54.0749C334.524 54.0749 334.452 54.0532 334.394 54.0171L332.604 52.8609L334.409 50.8375C334.539 50.6857 334.77 50.6785 334.921 50.8086C335.073 50.9387 335.08 51.1699 334.95 51.3217L333.709 52.7163L334.791 53.4173C334.957 53.5257 335.008 53.7497 334.9 53.9159C334.828 54.0243 334.712 54.0821 334.597 54.0821L334.589 54.0749Z" fill="#DA8470"/>
<path d="M316.993 49.9848C316.978 50.4979 317.375 50.9315 317.888 50.9459C318.4 50.9604 318.833 50.5629 318.848 50.0499C318.862 49.5368 318.465 49.1032 317.953 49.0888C317.44 49.0743 317.007 49.4718 316.993 49.9848Z" fill="#121936"/>
<path d="M319.331 56.2501C318.862 56.2501 318.35 56.1056 317.787 55.8165C317.606 55.7226 317.541 55.5058 317.628 55.3323C317.722 55.1517 317.938 55.0866 318.111 55.1734C318.819 55.5347 319.425 55.6214 319.858 55.4118C320.176 55.2601 320.306 55.0144 320.313 54.9999C320.399 54.8265 320.616 54.7542 320.796 54.8409C320.977 54.9277 321.049 55.1445 320.962 55.3179C320.934 55.3757 320.659 55.9104 319.974 56.1417C319.771 56.2067 319.555 56.2429 319.324 56.2429L319.331 56.2501Z" fill="#DA8470"/>
<path d="M323.25 47.9903C322.933 47.9759 322.63 47.7591 322.327 47.5784C322.023 47.3833 321.713 47.1954 321.432 47.0437C321.157 46.8919 320.833 46.7329 320.501 46.574C320.176 46.415 319.837 46.2705 319.656 46.0175C319.476 45.7718 319.555 45.4033 320.053 45.1648C320.522 44.9264 321.446 44.8902 322.363 45.3888C323.279 45.8947 323.734 46.6824 323.777 47.2027C323.835 47.7446 323.554 48.0048 323.258 47.9831L323.25 47.9903Z" fill="#121936"/>
<path d="M318.768 51.4517C318.682 51.4517 318.595 51.4228 318.53 51.3578C318.472 51.3072 317.953 50.8809 317.339 51.3217C317.18 51.4373 316.949 51.4012 316.834 51.235C316.718 51.0688 316.754 50.8447 316.92 50.7291C317.801 50.1076 318.667 50.5195 319.006 50.8231C319.158 50.9531 319.165 51.1844 319.035 51.3361C318.963 51.4156 318.862 51.459 318.768 51.459V51.4517Z" fill="#DA8470"/>
<path d="M320.067 66.3742C320.067 66.3742 325.921 67.2125 327.09 65.059C327.09 65.059 327.408 68.5855 320.103 69.8284L320.067 66.367V66.3742Z" fill="#DA8470"/>
<path d="M315.405 47.7808L314.9 49.32C314.705 49.9053 314.077 50.2233 313.485 50.0282C313.189 49.9342 312.879 50.0932 312.778 50.3823C312.467 51.3289 312.98 52.3551 313.925 52.6658L314.546 52.8681" fill="#FFD8D3"/>
<path d="M314.546 53.2367C314.51 53.2367 314.474 53.2367 314.43 53.215L313.81 53.0054C312.676 52.6297 312.056 51.4012 312.431 50.2666C312.51 50.0354 312.669 49.8403 312.893 49.7319C313.11 49.6235 313.362 49.6018 313.593 49.6813C313.781 49.7463 313.99 49.7319 314.171 49.638C314.351 49.544 314.488 49.3923 314.546 49.1971L315.051 47.6579C315.116 47.47 315.311 47.3616 315.506 47.4267C315.693 47.4917 315.795 47.6941 315.737 47.8819L315.232 49.4212C315.109 49.7969 314.849 50.1004 314.495 50.2811C314.142 50.4618 313.745 50.4907 313.369 50.3678C313.319 50.3534 313.268 50.3534 313.218 50.3823C313.167 50.4039 313.138 50.4473 313.117 50.4979C312.864 51.2567 313.276 52.0805 314.033 52.3262L314.654 52.5357C314.842 52.6008 314.943 52.8031 314.885 52.991C314.835 53.1427 314.697 53.2367 314.546 53.2367Z" fill="#DA8470"/>
<path d="M318.927 53.4896C317.014 53.4896 315.455 51.9287 315.455 50.0137C315.455 48.0987 317.014 46.5378 318.927 46.5378C320.84 46.5378 322.399 48.0987 322.399 50.0137C322.399 51.9287 320.84 53.4896 318.927 53.4896ZM318.927 47.2605C317.411 47.2605 316.177 48.4962 316.177 50.0137C316.177 51.5313 317.411 52.767 318.927 52.767C320.443 52.767 321.677 51.5313 321.677 50.0137C321.677 48.4962 320.443 47.2605 318.927 47.2605Z" fill="#D0D0FA" fill-opacity="0.39"/>
<path d="M322.031 49.5368C321.857 49.5368 321.699 49.4067 321.677 49.2333C321.648 49.0382 321.778 48.8503 321.98 48.8214L331.002 47.4267C331.197 47.3978 331.385 47.5351 331.414 47.7302C331.442 47.9253 331.313 48.1132 331.11 48.1421L322.088 49.5368C322.088 49.5368 322.052 49.5368 322.031 49.5368Z" fill="#D0D0FA" fill-opacity="0.39"/>
<path d="M315.932 49.5368C315.874 49.5368 315.816 49.5223 315.766 49.4934C315.362 49.2766 314.726 49.3344 314.517 49.3706C314.322 49.4067 314.135 49.2766 314.098 49.0815C314.062 48.8864 314.192 48.6985 314.387 48.6624C314.43 48.6551 315.39 48.4745 316.105 48.8503C316.285 48.9442 316.35 49.161 316.257 49.3416C316.192 49.4645 316.069 49.5368 315.939 49.5368H315.932Z" fill="#D0D0FA" fill-opacity="0.39"/>
<path d="M332.59 30.8928L327.162 30.1773C326.332 28.7104 324.723 27.7565 322.933 27.8866C321.15 28.0167 319.699 29.1729 319.079 30.7266C318.905 30.806 318.739 30.8928 318.573 30.9723C317.996 30.6615 317.325 30.4953 316.625 30.5459C314.632 30.6904 313.138 32.4175 313.276 34.412C313.304 34.8239 313.413 35.2069 313.571 35.5682C313.131 36.2909 312.749 37.0641 312.467 37.8879C312.193 39.9835 313.478 41.9563 315.491 42.5634C315.629 42.6067 315.773 42.6428 315.924 42.6862C316.083 42.7223 316.249 42.7585 316.43 42.7946C317.808 43.0331 320.125 42.9608 326.072 41.5517C328.108 41.0675 329.919 42.9536 329.364 44.9697C329.104 45.9019 328.88 46.8919 328.743 47.882L334.286 48.0626C335.167 48.0915 335.975 48.3806 336.654 48.8575C336.935 49.0599 337.195 49.2911 337.426 49.544C337.448 49.5657 337.462 49.5874 337.484 49.6091C337.577 49.7175 337.657 49.8259 337.743 49.9415C337.765 49.9704 337.78 49.9921 337.801 50.021C337.888 50.1583 337.974 50.2956 338.047 50.4401C338.047 50.4401 338.047 50.4473 338.047 50.4545C338.126 50.6063 338.191 50.7581 338.249 50.9243C338.263 50.9604 338.27 50.9965 338.285 51.0254C338.328 51.1483 338.364 51.2711 338.393 51.4012C338.407 51.4518 338.415 51.5024 338.429 51.5602C338.451 51.6758 338.472 51.7987 338.487 51.9215C338.487 51.9721 338.501 52.0227 338.509 52.0733C338.523 52.2467 338.53 52.4129 338.523 52.5936V52.6947C338.509 52.9332 338.48 53.1717 338.436 53.3957C338.436 53.4318 338.422 53.4607 338.415 53.4969C338.364 53.7136 338.299 53.9232 338.22 54.1255C338.205 54.1617 338.191 54.1978 338.177 54.2339C338.09 54.4363 337.996 54.6314 337.881 54.8121C337.866 54.8337 337.852 54.8626 337.83 54.8843C337.707 55.0722 337.577 55.2601 337.426 55.4263C337.274 55.5997 337.108 55.7515 336.935 55.896C336.913 55.9177 336.892 55.9321 336.87 55.9538C336.697 56.0911 336.516 56.214 336.329 56.3296C336.3 56.344 336.271 56.3585 336.242 56.3802C336.047 56.4886 335.845 56.5825 335.636 56.662C335.621 56.662 335.6 56.6765 335.585 56.6765C335.362 56.7559 335.131 56.821 334.9 56.8643C334.604 56.9149 334.301 56.9438 333.99 56.9294L330.215 56.8065C330.995 57.7749 332.041 58.5336 333.254 58.9311L332.72 63.9101C332.9 63.8956 333.074 63.8595 333.247 63.8233C333.492 63.7655 333.73 63.6933 333.961 63.5849C334.763 63.2163 335.427 62.5732 335.787 61.7349L336.95 59.0539C339.663 58.3458 341.72 55.9321 341.843 52.9838C341.879 52.1383 341.749 51.3289 341.489 50.5702C342.637 49.797 343.424 48.5179 343.489 47.0293C348.649 38.2926 337.541 31.5215 332.597 30.8711L332.59 30.8928Z" fill="#121936"/>
<path d="M373.774 116.121C373.774 116.121 354.763 81.34 353.651 79.8947C350.208 75.4072 344.846 72.625 338.999 72.5455L328.115 72.3938L315.701 72.0758C313.774 72.0758 308.158 73.0947 306.715 74.3738C302.218 78.3917 299.129 85.4374 297.368 90.8716L293.694 102.21L282.795 89.5203C282.362 89.0144 281.626 88.906 281.063 89.2673L268.23 97.5054C267.631 97.8884 267.487 98.6978 267.905 99.2686L285.625 123.21C289.847 129.807 298.97 130.299 303.979 124.893L300.796 150.439H353.485L355.189 128.651L368.014 127.979C373.918 127.668 377.174 120.969 373.774 116.128V116.121Z" fill="#4A38F9"/>
<path d="M295.715 105.592C295.607 105.592 295.498 105.541 295.426 105.447L292.063 101.025C291.94 100.866 291.976 100.642 292.128 100.519C292.287 100.396 292.51 100.432 292.633 100.591L295.996 105.014C296.119 105.173 296.083 105.397 295.932 105.52C295.867 105.57 295.787 105.592 295.715 105.592Z" fill="#121936"/>
<path d="M354.965 131.838C354.965 131.838 354.936 131.838 354.929 131.838C354.734 131.816 354.59 131.636 354.611 131.44L357.823 101.733C357.845 101.53 358.025 101.393 358.22 101.415C358.415 101.437 358.559 101.617 358.538 101.812L355.326 131.52C355.304 131.708 355.152 131.845 354.965 131.845V131.838Z" fill="#121936"/>
<path d="M303.979 125.255C303.914 125.255 303.842 125.233 303.777 125.197C303.611 125.089 303.568 124.865 303.676 124.698L314.979 107.55C315.087 107.384 315.311 107.341 315.477 107.449C315.643 107.557 315.686 107.781 315.578 107.948L304.275 125.096C304.203 125.204 304.095 125.255 303.972 125.255H303.979Z" fill="#121936"/>
<path d="M191.001 25.2634H26.7342C24.2388 25.2634 22.2159 27.2888 22.2159 29.7871V141.89C22.2159 144.388 24.2388 146.414 26.7342 146.414H191.001C193.496 146.414 195.519 144.388 195.519 141.89V29.7871C195.519 27.2888 193.496 25.2634 191.001 25.2634Z" fill="#D0D0FA" fill-opacity="0.39"/>
<path d="M191.001 25.2634H26.7342C24.2369 25.2634 22.2159 27.2868 22.2159 29.7871V43.1848H195.519V29.7871C195.519 27.2868 193.498 25.2634 191.001 25.2634Z" fill="#397AFA"/>
<path d="M195.519 43.5533H22.216C22.0139 43.5533 21.8551 43.3944 21.8551 43.192V29.7943C21.8551 27.0989 24.0421 24.9093 26.7342 24.9093H191.001C193.693 24.9093 195.88 27.0989 195.88 29.7943V43.192C195.88 43.3944 195.721 43.5533 195.519 43.5533ZM22.5769 42.8307H195.159V29.7943C195.159 27.4963 193.296 25.6319 191.001 25.6319H26.7342C24.439 25.6319 22.5769 27.4963 22.5769 29.7943V42.8307Z" fill="#353148"/>
<path d="M165.739 36.6521C164.18 36.6521 162.917 35.3875 162.917 33.8266C162.917 32.2657 164.18 31.0011 165.739 31.0011C167.298 31.0011 168.561 32.2657 168.561 33.8266C168.561 35.3875 167.298 36.6521 165.739 36.6521ZM165.739 31.7237C164.585 31.7237 163.639 32.6632 163.639 33.8266C163.639 34.9901 164.577 35.9295 165.739 35.9295C166.901 35.9295 167.84 34.9901 167.84 33.8266C167.84 32.6632 166.901 31.7237 165.739 31.7237Z" fill="#D0D0FA" fill-opacity="0.39"/>
<path d="M175.772 36.6521C174.213 36.6521 172.95 35.3875 172.95 33.8266C172.95 32.2657 174.213 31.0011 175.772 31.0011C177.331 31.0011 178.594 32.2657 178.594 33.8266C178.594 35.3875 177.331 36.6521 175.772 36.6521ZM175.772 31.7237C174.617 31.7237 173.671 32.6632 173.671 33.8266C173.671 34.9901 174.61 35.9295 175.772 35.9295C176.934 35.9295 177.872 34.9901 177.872 33.8266C177.872 32.6632 176.934 31.7237 175.772 31.7237Z" fill="#D0D0FA" fill-opacity="0.39"/>
<path d="M186.115 36.6521C184.556 36.6521 183.293 35.3875 183.293 33.8266C183.293 32.2657 184.556 31.0011 186.115 31.0011C187.674 31.0011 188.937 32.2657 188.937 33.8266C188.937 35.3875 187.674 36.6521 186.115 36.6521ZM186.115 31.7237C184.96 31.7237 184.014 32.6632 184.014 33.8266C184.014 34.9901 184.953 35.9295 186.115 35.9295C187.277 35.9295 188.215 34.9901 188.215 33.8266C188.215 32.6632 187.277 31.7237 186.115 31.7237Z" fill="#D0D0FA" fill-opacity="0.39"/>
<path d="M183.863 138.508H33.8798C31.6495 138.508 29.8379 136.694 29.8379 134.461V53.3812C29.8379 51.1483 31.6495 49.3345 33.8798 49.3345H183.863C186.093 49.3345 187.905 51.1483 187.905 53.3812V134.461C187.905 136.694 186.093 138.508 183.863 138.508ZM33.8798 50.0571C32.0465 50.0571 30.5597 51.5457 30.5597 53.3812V134.461C30.5597 136.297 32.0465 137.785 33.8798 137.785H183.863C185.696 137.785 187.183 136.297 187.183 134.461V53.3812C187.183 51.5457 185.696 50.0571 183.863 50.0571H33.8798Z" fill="#CFCFFB"/>
<path d="M74.6379 130.349C55.309 130.349 39.6322 114.661 39.6322 95.3014C39.6322 75.942 55.3018 60.2535 74.6379 60.2535C75.0782 60.2535 74.84 130.342 74.6379 130.342V130.349Z" fill="#397AFA"/>
<path d="M112.581 95.3086C112.581 75.9564 96.9116 60.2607 77.5754 60.2607C77.3517 60.2607 77.3012 77.3656 77.3373 95.4532C77.3373 95.5832 112.574 95.4532 112.574 95.3086H112.581Z" fill="#4A38F9"/>
<path d="M78.1384 124.525C77.8353 124.525 77.6717 120.073 77.6476 111.171C77.6404 107.926 77.6404 104.681 77.6476 102.246C77.6524 99.3024 77.7824 97.8307 78.0374 97.8307C103.841 97.7801 104.007 97.9463 104.165 98.1053C104.23 98.1703 104.274 98.2715 104.274 98.3654C104.274 112.789 92.5521 124.525 78.1456 124.525H78.1384ZM78.3766 98.5461C78.3116 101.415 78.3838 121.128 78.4704 123.795C92.2201 123.614 103.379 112.442 103.545 98.6761C101.827 98.5677 92.4294 98.5172 78.3766 98.5461Z" fill="#BFC8EB"/>
<path d="M170.907 78.24H123.415C123.213 78.24 123.054 78.081 123.054 77.8787C123.054 77.6763 123.213 77.5173 123.415 77.5173H170.907C171.109 77.5173 171.268 77.6763 171.268 77.8787C171.268 78.081 171.109 78.24 170.907 78.24Z" fill="#A3AEDA"/>
<path d="M146.295 88.8988H123.408C123.206 88.8988 123.047 88.7398 123.047 88.5375C123.047 88.3351 123.206 88.1761 123.408 88.1761H146.295C146.497 88.1761 146.656 88.3351 146.656 88.5375C146.656 88.7398 146.497 88.8988 146.295 88.8988Z" fill="#A3AEDA"/>
<path d="M170.835 88.8988H150.178C149.976 88.8988 149.817 88.7398 149.817 88.5375C149.817 88.3351 149.976 88.1761 150.178 88.1761H170.835C171.037 88.1761 171.196 88.3351 171.196 88.5375C171.196 88.7398 171.037 88.8988 170.835 88.8988Z" fill="#A3AEDA"/>
<path d="M207.154 101.509C205.566 101.473 204.296 101.509 204.296 101.509L120.203 101.415C110.907 101.473 103.234 108.294 101.812 117.19H101.733V117.689C101.625 118.541 101.56 119.416 101.567 120.305L101.61 127.48C101.646 133.052 99.4234 138.486 95.2299 142.15C92.7831 144.289 89.795 145.814 86.5109 146.457C86.3016 146.5 87.4709 146.515 88.5969 146.544C90.1847 146.58 91.455 146.544 91.455 146.544L175.548 146.638C184.844 146.58 192.517 139.758 193.939 130.862H194.018V130.364C194.126 129.511 194.191 128.637 194.184 127.748L194.119 117.812C195.158 109.747 201.366 103.142 209.233 101.596C209.442 101.552 208.273 101.531 207.147 101.509H207.154Z" fill="#121936"/>
<path d="M228.085 101.408H120.535C133.462 101.408 143.942 112.341 143.942 125.833V227.508C143.942 236.223 150.712 243.283 159.063 243.283H261.749V136.528C263.062 118.158 252.806 101.408 228.085 101.408Z" fill="#CFCFFB"/>
<path d="M261.749 138.783C261.597 138.783 261.474 138.66 261.474 138.508V130.747C261.474 114.914 248.605 102.029 232.791 102.029H120.239C120.088 102.029 119.965 101.906 119.965 101.755C119.965 101.603 120.088 101.48 120.239 101.48H232.791C248.908 101.48 262.016 114.603 262.016 130.74V138.501C262.016 138.652 261.893 138.775 261.741 138.775L261.749 138.783Z" fill="#121936"/>
<path d="M286.094 213.192L174.076 213.33L174.141 224.242C174.198 233.708 167.306 241.802 158.356 243.558C158.139 243.601 159.344 243.623 160.506 243.652C162.152 243.688 163.459 243.652 163.459 243.652L250.33 243.753C250.525 243.753 250.72 243.738 250.915 243.731L266.909 243.753C277.606 243.688 286.224 234.951 286.159 224.242L286.094 213.185V213.192Z" fill="#121936"/>
<path d="M245.87 146.045H163.191C162.989 146.045 162.831 145.886 162.831 145.684C162.831 145.481 162.989 145.322 163.191 145.322H245.87C246.072 145.322 246.231 145.481 246.231 145.684C246.231 145.886 246.072 146.045 245.87 146.045Z" fill="#121936"/>
<path d="M208.468 128.796H164.83C164.433 128.796 164.108 128.47 164.108 128.073C164.108 127.676 164.433 127.35 164.83 127.35H208.468C208.865 127.35 209.19 127.676 209.19 128.073C209.19 128.47 208.865 128.796 208.468 128.796Z" fill="#4A38F9"/>
<path d="M202.946 180.594H163.191C162.989 180.594 162.831 180.435 162.831 180.233C162.831 180.031 162.989 179.872 163.191 179.872H202.946C203.148 179.872 203.307 180.031 203.307 180.233C203.307 180.435 203.148 180.594 202.946 180.594Z" fill="#121936"/>
<path d="M190.2 162.247H163.191C162.989 162.247 162.831 162.088 162.831 161.885C162.831 161.683 162.989 161.524 163.191 161.524H190.2C190.402 161.524 190.561 161.683 190.561 161.885C190.561 162.088 190.402 162.247 190.2 162.247Z" fill="#121936"/>
<path d="M245.87 162.247H199.633C199.431 162.247 199.273 162.088 199.273 161.885C199.273 161.683 199.431 161.524 199.633 161.524H245.87C246.072 161.524 246.231 161.683 246.231 161.885C246.231 162.088 246.072 162.247 245.87 162.247Z" fill="#121936"/>
<path d="M190.2 200.214H163.191C162.989 200.214 162.831 200.055 162.831 199.853C162.831 199.65 162.989 199.491 163.191 199.491H190.2C190.402 199.491 190.561 199.65 190.561 199.853C190.561 200.055 190.402 200.214 190.2 200.214Z" fill="#121936"/>
<path d="M202.946 200.214H196.313C196.111 200.214 195.952 200.055 195.952 199.853C195.952 199.65 196.111 199.491 196.313 199.491H202.946C203.148 199.491 203.307 199.65 203.307 199.853C203.307 200.055 203.148 200.214 202.946 200.214Z" fill="#121936"/>
<path d="M220.456 175.182H211.781V202.772H220.456V175.182Z" fill="#397AFA"/>
<path d="M233.246 203.133H224.57C224.368 203.133 224.21 202.974 224.21 202.772V186.26C224.21 186.057 224.368 185.898 224.57 185.898H233.246C233.448 185.898 233.607 186.057 233.607 186.26V202.772C233.607 202.974 233.448 203.133 233.246 203.133ZM224.931 202.411H232.885V186.621H224.931V202.411Z" fill="#397AFA"/>
<path d="M245.87 172.342H237.194V202.772H245.87V172.342Z" fill="#4A38F9"/>
<path d="M188.439 86.5431L167.327 64.7339C167.19 64.5894 167.19 64.3581 167.334 64.2208C167.479 64.0835 167.703 64.0835 167.847 64.228L188.468 85.5242L211.377 64.004L238.529 85.0834C238.688 85.2062 238.717 85.4302 238.594 85.5892C238.472 85.7482 238.248 85.7771 238.089 85.6542L211.427 64.9507L188.446 86.5359L188.439 86.5431Z" fill="#121936"/>
<path d="M167.587 70.2041C170.744 70.2041 173.303 67.6417 173.303 64.4809C173.303 61.32 170.744 58.7576 167.587 58.7576C164.43 58.7576 161.871 61.32 161.871 64.4809C161.871 67.6417 164.43 70.2041 167.587 70.2041Z" fill="#4A38F9"/>
<path d="M217.107 64.4809C217.107 67.6388 214.552 70.2041 211.391 70.2041C208.23 70.2041 205.675 67.646 205.675 64.4809C205.675 61.3157 208.23 58.7576 211.391 58.7576C214.552 58.7576 217.107 61.3157 217.107 64.4809Z" fill="#4A38F9"/>
<path d="M194.102 86.2983C194.608 83.1783 192.492 80.2384 189.375 79.732C186.259 79.2255 183.323 81.3442 182.817 84.4643C182.311 87.5843 184.427 90.5242 187.544 91.0307C190.66 91.5371 193.596 89.4184 194.102 86.2983Z" fill="#397AFA"/>
<path d="M243.984 86.0745C244.37 82.9373 242.142 80.081 239.009 79.6947C235.876 79.3084 233.023 81.5384 232.637 84.6756C232.251 87.8128 234.478 90.6691 237.612 91.0554C240.745 91.4417 243.598 89.2117 243.984 86.0745Z" fill="#397AFA"/>
</g>
<defs>
<clipPath id="clip0_66_12887">
<rect width="419" height="267" fill="white"/>
</clipPath>
</defs>
</svg>
